<svg xmlns="http://www.w3.org/2000/svg" width="939" height="527" viewBox="0 0 939 527" fill="none"><path d="M906 22C906 25.8711 902.871 29 899 29C895.129 29 892 25.8711 892 22C892 18.1289 895.129 15 899 15C902.871 15 906 18.1289 906 22Z" fill="#FCC3DA"></path><path d="M709 79.4629L744.063 95.9998L723.218 61.3774L756.266 88.6371L770.338 54L762.31 94.1738L788.731 75.5039L764.309 103.143L798 123.566L765.93 113.706L773.287 149L753.522 113.384L724.24 136.495L741.45 107.424L709 79.4629Z" fill="white"></path><path d="M863.263 380.676C863.641 382.378 868.527 404.51 868.527 404.51L836 399.213L869.617 417.533L864.005 455L884.405 424.473C884.405 424.473 915.725 442.792 914.998 440.653C914.271 438.514 900.908 414.957 900.908 414.957L920 401.032L890.032 401.542L897.811 371L881.453 395.023L863.249 380.691L863.263 380.676Z" fill="white"></path><path d="M84.5137 58.0157C86.8393 65.0879 93.1199 90.7933 93.1199 90.7933C93.1199 90.7933 125.63 71.089 124.396 72.7113C123.162 74.3494 103.846 99.9445 103.846 99.9445L129 124.516L100.84 112.577L95.5404 146L87.3456 116.987L60.9734 138.471L79.3247 107.552L34 87.3753L79.7361 95.8335L84.5137 58V58.0157Z" fill="white"></path><path d="M43.0517 394.982L64.1442 426.657V387L78.1008 426.657L107.448 404.683L80.3849 434.355L112 432.083L77.5337 442.92L95.4757 477.166L73.5326 452.621L61.8601 486L63.2778 446.059L27 450.618L56.1577 434.923L43.0517 394.982Z" fill="white"></path><path d="M697 498C697 501.871 693.871 505 690 505C686.129 505 683 501.871 683 498C683 494.129 686.129 491 690 491C693.871 491 697 494.129 697 498Z" fill="#6A83E4"></path><path d="M873 137C873 140.871 869.871 144 866 144C862.129 144 859 140.871 859 137C859 133.129 862.129 130 866 130C869.871 130 873 133.129 873 137Z" fill="#6A83E4"></path><path d="M899 249C902.866 249 906 245.866 906 242C906 238.134 902.866 235 899 235C895.134 235 892 238.134 892 242C892 245.866 895.134 249 899 249Z" fill="#F3C000"></path><path d="M825 439C825 442.871 821.871 446 818 446C814.129 446 811 442.871 811 439C811 435.129 814.129 432 818 432C821.871 432 825 435.129 825 439Z" fill="#FCC3DA"></path><path d="M805 215C805 218.871 801.871 222 798 222C794.129 222 791 218.871 791 215C791 211.129 794.129 208 798 208C801.871 208 805 211.129 805 215Z" fill="#F23F00"></path><path d="M15 417.5C15 421.648 11.6476 425 7.5 425C3.35239 425 0 421.648 0 417.5C0 413.352 3.35239 410 7.5 410C11.6476 410 15 413.352 15 417.5Z" fill="#6A83E4"></path><path d="M183 7.5C183 11.6476 179.648 15 175.5 15C171.352 15 168 11.6476 168 7.5C168 3.35239 171.352 0 175.5 0C179.648 0 183 3.35239 183 7.5Z" fill="#F3C000"></path><path d="M56 218.5C56 222.648 52.6476 226 48.5 226C44.3524 226 41 222.648 41 218.5C41 214.352 44.3524 211 48.5 211C52.6476 211 56 214.352 56 218.5Z" fill="#FCC3DA"></path><path d="M181 519.5C181 523.648 177.648 527 173.5 527C169.352 527 166 523.648 166 519.5C166 515.352 169.352 512 173.5 512C177.648 512 181 515.352 181 519.5Z" fill="#F23F00"></path><path d="M245.729 115.449C247.242 121.173 242.173 126.242 236.449 124.729C233.953 124.074 231.926 122.047 231.271 119.551C229.758 113.827 234.827 108.758 240.551 110.271C243.047 110.926 245.074 112.953 245.729 115.449Z" fill="#F23F00"></path><path d="M893 489C893 485.686 890.314 483 887 483C883.686 483 881 485.686 881 489C881 492.314 883.686 495 887 495C890.314 495 893 492.314 893 489ZM172 385C172 381.066 169.035 378 165.5 378C161.965 378 159 381.066 159 385C159 388.934 161.964 392 165.5 392C169.036 392 172 388.934 172 385ZM55.6025 266.003C64.6335 265.877 73.4505 270.141 77.5664 279.854C77.7817 280.362 77.5444 280.949 77.0361 281.164C76.5276 281.38 75.9401 281.142 75.7246 280.634C71.9814 271.8 64.0001 267.886 55.6299 268.003C47.4883 268.117 39.0843 272.053 34.0801 278.911L33.6064 279.584C31.1934 283.139 29.7468 288.648 30.3877 293.24C30.4038 293.356 30.4217 293.471 30.4404 293.585C31.4873 292.955 32.5815 292.401 33.7119 291.934L34.4766 291.634C36.3519 290.931 38.8501 290.235 41.3047 290.074C43.9821 289.899 46.8893 290.35 48.7188 292.483L48.8926 292.695L48.8936 292.696L49.1025 292.977C50.0947 294.383 50.3177 295.824 49.8818 297.181C49.44 298.556 48.3703 299.687 47.1621 300.56C45.939 301.443 44.4739 302.135 43.0693 302.603C41.6736 303.067 40.2639 303.334 39.1455 303.312C35.811 303.24 33.2758 302.136 31.4883 300.314C30.5045 299.312 29.7738 298.119 29.2568 296.815C26.9208 298.627 24.9396 300.889 23.4893 303.46L23.4883 303.462C21.2792 307.362 20.6797 312.037 21.1494 316.766C21.5896 321.197 22.9639 325.617 24.7588 329.369L25.123 330.11L25.4854 330.817C33.1931 345.613 47.3481 358.292 62.3281 365.438L63.1045 365.803C71.137 369.522 79.9879 371.708 88.6738 370.792L89.1807 370.735C99.8056 369.461 110.116 363.154 113.037 352.704C113.186 352.173 113.738 351.862 114.27 352.011C114.801 352.16 115.112 352.711 114.963 353.243C111.7 364.914 100.187 371.596 88.8828 372.78L88.8838 372.781C79.4392 373.777 69.9194 371.285 61.4668 367.242C45.9062 359.82 31.1846 346.558 23.3379 331.012C21.2707 326.919 19.6564 321.968 19.1592 316.964C18.6623 311.962 19.2762 306.839 21.748 302.476C23.4556 299.45 25.8321 296.824 28.6367 294.782C28.5435 294.366 28.4658 293.943 28.4062 293.517C27.693 288.405 29.2762 282.402 31.9512 278.461L32.2041 278.095C37.5771 270.461 46.7465 266.126 55.6025 266.003ZM840.818 221.32C841.194 220.915 841.827 220.891 842.231 221.267C842.636 221.642 842.66 222.275 842.284 222.68C828.765 237.255 820.978 256.836 819.232 276.589C818.043 289.922 821.399 303.4 829.78 313.921L830.351 314.626C836.311 321.877 844.291 328.037 852.65 330.521C858.285 332.194 864.1 332.205 869.643 329.729C865.483 324.206 863.175 317.268 863.562 310.349C864.015 302.239 868.271 294.334 875.039 289.763L875.04 289.762L875.344 289.562C878.504 287.544 882.385 286.708 885.736 287.499C889.276 288.335 892.124 290.974 892.811 295.631L892.874 296.112C893.449 301.099 891.674 306.665 889.062 311.721C886.351 316.965 882.662 321.808 879.433 325.133C877.291 327.336 875.056 329.069 872.765 330.382C872.971 330.613 873.18 330.842 873.395 331.066L873.739 331.422C881.059 338.831 892.861 343.218 904.912 343.905C917.156 344.604 929.426 341.471 937.317 334.092C937.721 333.715 938.353 333.736 938.73 334.14C939.107 334.543 939.086 335.176 938.683 335.553C930.264 343.425 917.383 346.619 904.798 345.901C892.408 345.195 880.079 340.685 872.315 332.825L871.949 332.448C871.603 332.086 871.265 331.714 870.937 331.335C864.796 334.233 858.307 334.288 852.081 332.438C843.233 329.81 834.938 323.357 828.803 315.893L828.216 315.167C819.471 304.19 816.012 290.184 817.24 276.412C819.019 256.277 826.959 236.262 840.818 221.32ZM885.277 289.445C882.449 288.777 878.988 289.516 876.157 291.421C869.936 295.623 865.979 302.94 865.559 310.46C865.193 316.999 867.427 323.604 871.462 328.819C873.705 327.577 875.895 325.903 877.998 323.739L878.585 323.123C881.545 319.956 884.836 315.541 887.285 310.803C889.829 305.881 891.393 300.747 890.888 296.346L890.832 295.923C890.266 292.082 888.025 290.095 885.277 289.445ZM47.3174 293.927C46.1266 292.41 43.9925 291.903 41.4346 292.07C38.917 292.235 36.2761 293.042 34.4746 293.783L34.4736 293.782C33.2457 294.29 32.0652 294.909 30.9473 295.624C31.3879 296.901 32.0388 298.02 32.916 298.914C34.2878 300.312 36.2987 301.249 39.1865 301.311C40.0015 301.327 41.1734 301.126 42.4375 300.705C43.6927 300.287 44.9659 299.678 45.9912 298.938C47.0316 298.186 47.7212 297.37 47.9785 296.569C48.2127 295.84 48.1374 294.976 47.3174 293.927ZM26 133.5C26 129.905 23.0953 127 19.5 127C15.9047 127 13 129.905 13 133.5C13 137.095 15.9047 140 19.5 140C23.0953 140 26 137.095 26 133.5ZM322.501 1.01172C327.378 0.794548 330.96 3.47616 333.173 7.11426C335.438 10.8375 336.339 15.6467 335.853 19.7256L335.854 19.7266C335.198 25.307 332.822 30.5351 329.916 35.3096C336.888 39.875 345.679 44.0375 355.402 46.3994C369.736 49.8814 386.035 49.4441 401.509 40.707L401.6 40.6611C402.064 40.4576 402.616 40.635 402.871 41.0859C403.142 41.5668 402.972 42.1767 402.491 42.4482L401.74 42.8652C385.955 51.5002 369.411 51.8603 354.931 48.3428C344.995 45.9291 336.005 41.683 328.853 37.0039C327.886 38.4992 326.879 39.9469 325.871 41.3428L324.967 42.583C318.19 51.7934 309.299 59.3983 299.319 64.8037L298.35 65.3193C273.068 78.5671 242.431 78.4912 215.715 70.5508C215.186 70.3933 214.884 69.8369 215.041 69.3076C215.198 68.7782 215.756 68.4764 216.285 68.6338C242.653 76.4706 272.725 76.4897 297.422 63.5479L298.367 63.0449C308.097 57.7746 316.76 50.3619 323.356 41.3975L324.258 40.1611C325.261 38.7718 326.249 37.3457 327.191 35.8867C324.451 33.9925 322.013 32.0485 319.939 30.1396L319.534 29.7617C315.366 25.8127 311.828 20.552 311.569 14.5576C311.434 11.417 312.461 8.19643 314.288 5.68848C316.117 3.17777 318.807 1.3095 322.023 1.04199L322.501 1.01172ZM666 37C666 33.6863 663.314 31 660 31C656.686 31 654 33.6863 654 37C654 40.3137 656.686 43 660 43C663.314 43 666 40.3137 666 37ZM331.464 8.15332C329.466 4.86978 326.37 2.69193 322.188 3.03418L322.189 3.03516C319.68 3.24385 317.475 4.71041 315.904 6.86621C314.332 9.02461 313.452 11.8033 313.567 14.4717C313.795 19.733 316.928 24.5368 320.905 28.3057L321.293 28.667L322.005 29.3105C323.832 30.934 325.929 32.579 328.255 34.1904C331.046 29.5917 333.259 24.6754 333.867 19.4932V19.4912L333.904 19.1455C334.252 15.5536 333.418 11.3651 331.464 8.15332ZM895 489C895 493.418 891.418 497 887 497C882.582 497 879 493.418 879 489C879 484.582 882.582 481 887 481C891.418 481 895 484.582 895 489ZM174 385C174 389.915 170.26 394 165.5 394C160.74 394 157 389.915 157 385C157 380.085 160.74 376 165.5 376C170.26 376 174 380.085 174 385ZM28 133.5C28 138.2 24.1999 142 19.5 142C14.8001 142 11 138.2 11 133.5C11 128.8 14.8001 125 19.5 125C24.1999 125 28 128.8 28 133.5ZM668 37C668 41.4183 664.418 45 660 45C655.582 45 652 41.4183 652 37C652 32.5817 655.582 29 660 29C664.418 29 668 32.5817 668 37Z" fill="#311A2F"></path></svg>